<svg id="Layer_4" xmlns="http://www.w3.org/2000/svg" viewBox="0 0 504 252"><style>.st0{fill:#4d5459}.st1{fill:#bbb}.st2{font-family:&apos;Helvetica&apos;}.st3{font-size:12px}.st4{fill:#ccc}.st5{fill:#222}.st6{fill:#999}</style><path class="st0" d="M0 0h504v252H0z"/><text transform="rotate(-90 84.505 39.505)" class="st1 st2 st3">Count</text><text transform="translate(240.993 228)" class="st1 st2 st3">Risk Score</text><path class="st5" d="M108 155.3h360v.7H108zM108 131.3h360v.7H108zM108 107.3h360v.7H108zM108 83.3h360v.7H108zM108 59.3h360v.7H108zM108 35.3h360v.7H108z"/><path class="st1" d="M120 92.4h12V180h-12zM156 97h12v83h-12zM192 108.5h12V180h-12zM228 99.1h12V180h-12zM264 102.5h12V180h-12zM300 103.7h12V180h-12zM336 97.7h12V180h-12zM372 107.8h12V180h-12zM408 103.9h12V180h-12zM444 125.5h12V180h-12z"/><text transform="translate(122.664 204)" class="st5 st2 st3">1</text><text transform="translate(63.981 158.667)" class="st5 st2 st3">100</text><text transform="translate(77.329 182.667)" class="st5 st2 st3">0</text><text transform="translate(63.981 134.667)" class="st5 st2 st3">200</text><text transform="translate(63.981 110.667)" class="st5 st2 st3">300</text><text transform="translate(63.981 86.667)" class="st5 st2 st3">400</text><text transform="translate(63.981 62.667)" class="st5 st2 st3">500</text><text transform="translate(63.981 38.667)" class="st5 st2 st3">600</text><text transform="translate(158.664 204)" class="st5 st2 st3">2</text><text transform="translate(194.664 204)" class="st5 st2 st3">3</text><text transform="translate(230.664 204)" class="st5 st2 st3">4</text><text transform="translate(266.664 204)" class="st5 st2 st3">5</text><text transform="translate(302.664 204)" class="st5 st2 st3">6</text><text transform="translate(338.664 204)" class="st5 st2 st3">7</text><text transform="translate(374.664 204)" class="st5 st2 st3">8</text><text transform="translate(410.664 204)" class="st5 st2 st3">9</text><text transform="translate(443.327 204)" class="st5 st2 st3">10</text><path class="st1" d="M108 179.3h360v.7H108z"/></svg>