<svg id="Layer_4" xmlns="http://www.w3.org/2000/svg" viewBox="0 0 504 251"><style>.st0{fill:#4d5459}.st1{fill:#bbb}.st2{fill:#ccc}.st3{fill:#222}.st4{fill:#999}.st5{font-family:&apos;Helvetica&apos;}.st6{font-size:12px}</style><path class="st0" d="M0 0h504v252H0z"/><path class="st3" d="M108 155.3h360v.7H108zM108 131.3h360v.7H108zM108 107.3h360v.7H108zM108 83.3h360v.7H108zM108 59.3h360v.7H108zM108 35.3h360v.7H108z"/><path class="st1" d="M120 34.8h12V180h-12zM156 103h12v77h-12zM192 122.9h12V180h-12zM228 121.7h12V180h-12zM264 132h12v48h-12zM300 141.6h12V180h-12zM336 152.9h12V180h-12zM372 157h12v23h-12zM408 161.5h12V180h-12zM444 168h12v12h-12z"/><text transform="translate(122.662 204)" class="st3 st5 st6">1</text><text transform="translate(63.98 158.667)" class="st3 st5 st6">100</text><text transform="translate(77.328 182.667)" class="st3 st5 st6">0</text><text transform="translate(63.98 134.667)" class="st3 st5 st6">200</text><text transform="translate(63.98 110.667)" class="st3 st5 st6">300</text><text transform="translate(63.98 86.667)" class="st3 st5 st6">400</text><text transform="rotate(-90 84.505 39.505)" class="st1 st5 st6">Count</text><text transform="translate(240.993 228)" class="st1 st5 st6">Risk Score</text><text transform="translate(63.98 62.667)" class="st3 st5 st6">500</text><text transform="translate(63.98 38.667)" class="st3 st5 st6">600</text><text transform="translate(158.662 204)" class="st3 st5 st6">2</text><text transform="translate(194.662 204)" class="st3 st5 st6">3</text><text transform="translate(230.662 204)" class="st3 st5 st6">4</text><text transform="translate(266.662 204)" class="st3 st5 st6">5</text><text transform="translate(302.662 204)" class="st3 st5 st6">6</text><text transform="translate(338.662 204)" class="st3 st5 st6">7</text><text transform="translate(374.662 204)" class="st3 st5 st6">8</text><text transform="translate(410.662 204)" class="st3 st5 st6">9</text><text transform="translate(443.325 204)" class="st3 st5 st6">10</text><path class="st1" d="M108 179.3h360v.7H108z"/></svg>